<svg width="128" height="128" viewBox="0 0 128 128" fill="none" xmlns="http://www.w3.org/2000/svg">
  <path d="M64 10 C64 10 80 40 80 70 C80 100 64 118 64 118 C64 118 50 100 50 70 C50 40 64 10 64 10Z" fill="#F0F0F5" stroke="#d0d0d5" stroke-width="2"/>
  <line x1="64" y1="20" x2="64" y2="110" stroke="#c0c0c5" stroke-width="2"/>
  <path d="M64 30 Q50 35 45 30" stroke="#c0c0c5" stroke-width="1.5" fill="none"/>
  <path d="M64 50 Q50 55 45 50" stroke="#c0c0c5" stroke-width="1.5" fill="none"/>
  <path d="M64 70 Q50 75 45 70" stroke="#c0c0c5" stroke-width="1.5" fill="none"/>
  <path d="M64 90 Q50 95 45 90" stroke="#c0c0c5" stroke-width="1.5" fill="none"/>
  <path d="M64 30 Q80 35 85 30" stroke="#c0c0c5" stroke-width="1.5" fill="none"/>
  <path d="M64 50 Q80 55 85 50" stroke="#c0c0c5" stroke-width="1.5" fill="none"/>
  <path d="M64 70 Q80 75 85 70" stroke="#c0c0c5" stroke-width="1.5" fill="none"/>
  <path d="M64 90 Q80 95 85 90" stroke="#c0c0c5" stroke-width="1.5" fill="none"/>
</svg>